,
.   http://www.scenetime.com/signup.php  ---&gt;  Hottest scene tracker on the net !!!  

    Join Now   http://www.scenetime.com/signup.php

    seed back for speed


 



...................................NFO:.................................................[IMG]http://img3.imageshack.us/img3/2077/61qiy4lbol.jpg[/IMG]


[color=blue][size=4][b]Barbie.A.Perfect.Christmas.2011.DVDRip.XVID.AC3.HQ.Hive-CM8[/b][/size][/color]


[b]Thx Hive

CM8 Doing It Right The First Time :D

THIS IS ONE FOR SIMMO :D

Source: DVD-R

Encode:

love doing movies for kids, here is the newest barbie movie.
did the usual sharpness,rgb,denoise
got very nice
enjoy

Video: 720x400 @bitrate 1700 2pass
Audio: English AC3 5.1 @448
Sample: yes included
Bonus: yes 2 mins outtakes in additional file[/b]


[url]http://www.imdb.com/title/tt2091240/[/url]


General
Complete name                  : Barbie.A.Perfect.Christmas.2011.DVDRip.XVID.AC3.HQ.Hive-CM8.avi
Format                         : AVI
Format/Info                    : Audio Video Interleave
File size                      : 1.11 GiB
Duration                       : 1h 13mn
Overall bit rate               : 2 156 Kbps
Writing application            : Nandub v1.0rc2
Writing library                : Nandub build 1853/release

Video
ID                             : 0
Format                         : MPEG-4 Visual
Format profile                 : Advanced Simple@L5
Format settings, BVOP          : 2
Format settings, QPel          : Yes
Format settings, GMC           : No warppoints
Format settings, Matrix        : Default (H.263)
Muxing mode                    : Packed bitstream
Codec ID                       : XVID
Codec ID/Hint                  : XviD
Duration                       : 1h 13mn
Bit rate                       : 1 698 Kbps
Width                          : 720 pixels
Height                         : 400 pixels
Display aspect ratio           : 16:9
Frame rate                     : 23.976 fps
Color space                    : YUV
Chroma subsampling             : 4:2:0
Bit depth                      : 8 bits
Scan type                      : Progressive
Compression mode               : Lossy
Bits/(Pixel*Frame)             : 0.246
Stream size                    : 897 MiB (79%)
Writing library                : XviD 1.2.1 (UTC 2008-12-04)

Audio
ID                             : 1
Format                         : AC-3
Format/Info                    : Audio Coding 3
Mode extension                 : CM (complete main)
Codec ID                       : 2000
Duration                       : 1h 13mn
Bit rate mode                  : Constant
Bit rate                       : 448 Kbps
Channel(s)                     : 6 channels
Channel positions              : Front: L C R, Side: L R, LFE
Sampling rate                  : 48.0 KHz
Bit depth                      : 16 bits
Compression mode               : Lossy
Delay relative to video        : 50ms
Stream size                    : 237 MiB (21%)
Alignment                      : Split accross interleaves
Interleave, duration           : 42 ms (1.00 video frame)
Interleave, preload duration   : 500 ms


Plot:

Join Barbie and her sisters Skipper, Stacie and Chelsea as their holiday vacation plans turn 
into a most unexpected adventure and heartwarming lesson. After a snowstorm diverts their plane, 
the girls find themselves far from their New York destination and their holiday dreams.

Cast:

Diana Kaarina	... 	Barbie (voice)
Jennifer Waris	... 	Barbie (singing voice)
Rachel Harrison	... 	Skipper (voice)
Nevada Brandt	... 	Skipper (singing voice)
Lauren Lavoie	... 	Stacie (voice)
Danielle Bessler	... 	Stacie (singing voice)
Ashlyn Drummond	... 	Chelsea (voice)
Lucia Vecchio	... 	Chelsea (singing voice)

[img]http://img405.imageshack.us/img405/1271/43734514.png[/img]
[img]http://img207.imageshack.us/img207/7820/bbaa.png[/img]
[img]http://img208.imageshack.us/img208/9057/bbabaa.png[/img]
[img]http://img534.imageshack.us/img534/385/bbababaa.png[/img]
[img]http://img854.imageshack.us/img854/2305/bbababbaaa.png[/img]



Greetz

ViSiON,SPK,SiC,SANTi,3LT0N,YanKeeS,MAGNET,THC,T0XiC,LKRG,FANTASIA-PLAY,FANTASIA-M,FLAWL3SS,
WBZ,BHRG,NOVA,D2U,Vik,Rapeseed,SAFC,goldadvance,MEMORY100,KaN1vE,Unevano,Pinnz,Wayne
Mr Hive,and all P2P groups
Great Work Guys :D

LOOKING FOR ANYTHING YOU WANT TO LOOK AND SOUND BETTER

CM8@hushmail.com